<svg width="21" height="20" viewBox="0 0 21 20" fill="none" xmlns="http://www.w3.org/2000/svg">
<path d="M14.7424 2.14564C15.8231 2.14875 16.8586 2.56352 17.6227 3.29938C18.3869 4.03523 18.8176 5.03236 18.8209 6.07301V13.9269C18.8176 14.9675 18.3869 15.9647 17.6227 16.7005C16.8586 17.4364 15.8231 17.8512 14.7424 17.8543H6.58647C5.5058 17.8512 4.47032 17.4364 3.70616 16.7005C2.94201 15.9647 2.51128 14.9675 2.50806 13.9269V6.07301C2.51128 5.03236 2.94201 4.03523 3.70616 3.29938C4.47032 2.56352 5.5058 2.14875 6.58647 2.14564H14.7424ZM14.7424 0.574951H6.58647C3.44617 0.574951 0.876953 3.04901 0.876953 6.07301V13.9269C0.876953 16.9509 3.44617 19.425 6.58647 19.425H14.7424C17.8827 19.425 20.452 16.9509 20.452 13.9269V6.07301C20.452 3.04901 17.8827 0.574951 14.7424 0.574951Z" fill="white"/>
<path d="M15.9667 6.07183C15.7247 6.07183 15.4881 6.00273 15.2869 5.87328C15.0858 5.74382 14.9289 5.55982 14.8363 5.34455C14.7437 5.12928 14.7195 4.89239 14.7667 4.66386C14.8139 4.43533 14.9304 4.22541 15.1015 4.06064C15.2726 3.89588 15.4906 3.78367 15.728 3.73821C15.9653 3.69276 16.2113 3.71609 16.4348 3.80526C16.6584 3.89443 16.8495 4.04543 16.9839 4.23917C17.1183 4.43291 17.1901 4.66069 17.1901 4.8937C17.1904 5.04851 17.159 5.20186 17.0977 5.34494C17.0363 5.48803 16.9462 5.61804 16.8325 5.7275C16.7188 5.83697 16.5838 5.92374 16.4352 5.98283C16.2867 6.04191 16.1274 6.07216 15.9667 6.07183ZM10.6652 6.85696C11.3105 6.85696 11.9413 7.04123 12.4779 7.38645C13.0144 7.73168 13.4326 8.22236 13.6795 8.79645C13.9265 9.37054 13.9911 10.0023 13.8652 10.6117C13.7393 11.2212 13.4286 11.781 12.9723 12.2204C12.516 12.6598 11.9346 12.959 11.3017 13.0802C10.6689 13.2014 10.0128 13.1392 9.41668 12.9014C8.8205 12.6636 8.31095 12.2609 7.95245 11.7443C7.59394 11.2276 7.40259 10.6202 7.40259 9.99877C7.40352 9.16578 7.74755 8.36717 8.35922 7.77816C8.97088 7.18915 9.80021 6.85785 10.6652 6.85696ZM10.6652 5.28627C9.69734 5.28627 8.75119 5.56265 7.94641 6.08047C7.14164 6.59829 6.5144 7.33428 6.144 8.19537C5.7736 9.05647 5.67669 10.004 5.86552 10.9181C6.05434 11.8323 6.52043 12.672 7.20483 13.331C7.88924 13.9901 8.76122 14.4389 9.71051 14.6207C10.6598 14.8026 11.6438 14.7092 12.538 14.3526C13.4322 13.9959 14.1965 13.3919 14.7342 12.6169C15.272 11.8419 15.559 10.9308 15.559 9.99877C15.559 8.74894 15.0434 7.55029 14.1256 6.66653C13.2079 5.78276 11.9631 5.28627 10.6652 5.28627Z" fill="white"/>
</svg>
