<svg width="21" height="18" viewBox="0 0 21 18" fill="none" xmlns="http://www.w3.org/2000/svg">
<path d="M21.0006 2.59869C20.2138 2.94053 19.3814 3.16574 18.5297 3.26721C19.4248 2.74305 20.098 1.91032 20.4229 0.925201C19.5766 1.42008 18.6522 1.76731 17.6894 1.95201C17.284 1.5271 16.7964 1.18907 16.2562 0.958472C15.7161 0.727872 15.1347 0.609518 14.5474 0.610603C12.1695 0.610603 10.2452 2.50693 10.2452 4.84457C10.2435 5.16973 10.2808 5.49392 10.3562 5.81021C8.65113 5.73028 6.98151 5.29531 5.45416 4.53314C3.92681 3.77097 2.57536 2.69838 1.48629 1.38399C1.10422 2.02809 0.902159 2.763 0.901228 3.5119C0.901228 4.98002 1.66719 6.27774 2.82377 7.03802C2.13853 7.02176 1.46733 6.84039 0.867146 6.50932V6.56175C0.867146 8.61538 2.35275 10.3238 4.31899 10.7127C3.94924 10.8113 3.56822 10.8612 3.18556 10.8613C2.91404 10.8617 2.64313 10.8354 2.37678 10.7826C2.9234 12.4648 4.5143 13.6883 6.39883 13.7232C4.86752 14.9034 2.98746 15.5412 1.05416 15.5365C0.710991 15.536 0.368143 15.5156 0.0273438 15.4754C1.9941 16.7312 4.28029 17.3955 6.61381 17.3892C14.5382 17.3892 18.8674 10.9355 18.8674 5.33831C18.8674 5.1548 18.8626 4.97128 18.8539 4.79214C19.6941 4.19443 20.4211 3.45165 21.0006 2.59869Z" fill="white"/>
</svg>
